<?xml version="1.0" encoding="UTF-8"?>
<svg xmlns="http://www.w3.org/2000/svg" viewBox="0 0 384 82" fill="#fff">
  <path d="M2.55 63.53C1.02 63.53 0 62.51 0 60.98V2.29C0 1.02 1.02 0 2.29 0s2.29 1.02 2.29 2.29v16.22h11.04c13.25 0 23.44 9.6 23.44 22.51 0 12.91-10.19 22.51-23.44 22.51H2.55Zm13.08-4.42c10.62 0 18.85-7.56 18.85-18.09 0-10.53-8.24-18.09-18.85-18.09H4.59v36.18h11.04ZM47.22 2.29c0-1.27 1.02-2.29 2.29-2.29s2.29 1.02 2.29 2.29v59.45c0 1.27-1.02 2.29-2.29 2.29s-2.29-1.02-2.29-2.29V2.29ZM93.08 20.3c0-1.27 1.02-2.29 2.29-2.29s2.29 1.02 2.29 2.29v26.58c0 9.77-7.9 17.75-17.75 17.75s-17.75-7.98-17.75-17.75V20.3c0-1.27 1.02-2.29 2.29-2.29s2.29 1.02 2.29 2.29v26.58c0 7.3 5.95 13.25 13.16 13.25s13.16-5.94 13.16-13.25V20.3h.02Zm130.87 43.23c-7.73 0-13.16-6.28-13.16-13.16s5.44-13.08 13.16-13.08h12.06c1.19 0 2.21 1.02 2.21 2.21s-1.02 2.21-2.21 2.21h-12.06c-5.1 0-8.58 4.25-8.58 8.66s3.48 8.75 8.58 8.75h18.94V34.41c0-6.96-4.33-11.47-11.3-11.47h-14.18c-1.19 0-2.21-1.02-2.21-2.21s1.02-2.21 2.21-2.21h14.18c9.43 0 15.88 6.45 15.88 15.88v26.58c0 1.53-1.02 2.55-2.55 2.55h-20.98.01Zm65.14-25.82c0 1.27-1.02 2.29-2.29 2.29s-2.29-1.02-2.29-2.29v-4.08c0-6.03-4.5-10.7-10.79-10.7h-11.3v38.81c0 1.27-1.02 2.21-2.29 2.21s-2.29-.93-2.29-2.21V21.06c0-1.44 1.02-2.55 2.55-2.55h13.33c8.83 0 15.37 6.54 15.37 15.12v4.08Zm12.82 43.82c-1.19 0-2.21-1.02-2.21-2.21s1.02-2.21 2.21-2.21H320c5.35 0 9.34-3.91 9.34-9.43v-4.16h-11.13c-13.25 0-23.36-9.6-23.36-22.51 0-12.91 10.11-22.51 23.36-22.51h13.16c1.44 0 2.55 1.1 2.55 2.55v46.63c0 7.9-5.86 13.84-13.84 13.84H301.9l.01.01Zm27.43-58.6h-11.13c-10.62 0-18.77 7.64-18.77 18.09s8.15 18.09 18.77 18.09h11.13V22.93Zm36.1 40.6c-13.25 0-23.36-9.6-23.36-22.51 0-12.91 10.11-22.51 23.36-22.51h4.5c8.15 0 13.59 5.78 13.59 12.65s-5.44 12.57-13.59 12.57h-13.67c-1.19 0-2.21-1.02-2.21-2.21s1.02-2.21 2.21-2.21h13.67c5.44 0 9-3.65 9-8.15s-3.57-8.24-9-8.24h-4.5c-10.62 0-18.77 7.64-18.77 18.09s8.15 18.09 18.77 18.09h12.15c1.19 0 2.21 1.02 2.21 2.21s-1.02 2.21-2.21 2.21h-12.15v.01ZM146.31 36.25h6.19c1.48 0 2.68-1.47 2.68-3.27 0-1.81-1.2-3.27-2.68-3.27h-6.19v6.55-.01Zm0 20.04h6.19c1.48 0 2.68-1.47 2.68-3.27 0-1.81-1.2-3.27-2.68-3.27h-6.19v6.55-.01Zm-25.25-14.03c0 3.69 3.57 6.69 7.95 6.69h16.15V35.58h-16.15c-4.38 0-7.95 3-7.95 6.68Z"></path>
  <path d="M127.84 55.34c-7.28 0-13.17-5.9-13.17-13.08s5.9-13.08 13.17-13.08h17.32v-8.85h-17.22c-12.09 0-21.93 9.83-21.93 21.92 0 12.09 9.83 21.93 21.93 21.93h17.22v-8.85h-17.32v.01Zm59.57-13.08c0-3.69-3.57-6.69-7.95-6.69h-16.15v13.37h16.15c4.38 0 7.95-3 7.95-6.68Z"></path>
  <path d="M180.53 20.34h-8.3V4.58c0-2.45-2.01-4.46-4.46-4.46s-4.46 2.01-4.46 4.46v24.61h17.32c7.28 0 13.17 5.9 13.17 13.08s-5.9 13.08-13.17 13.08h-17.32v8.85h17.22c12.09 0 21.93-9.83 21.93-21.92 0-12.09-9.83-21.93-21.93-21.93v-.01Z"></path>
</svg>
